<svg width="64" height="64" viewBox="0 0 64 64" fill="none" xmlns="http://www.w3.org/2000/svg">
<g id="Icon/Paid media" clip-path="url(#clip0_1560_212)">
<path id="Vector" d="M12.25 15.4375H31.8125V22.7766C31.8125 23.847 32.6821 24.7179 33.7511 24.7179H52.75V29C52.75 29.5177 53.1698 29.9375 53.6875 29.9375C54.2052 29.9375 54.625 29.5177 54.625 29V24.7179H56.8013C57.8703 24.7179 58.7399 23.847 58.7399 22.7766V7.0035C58.7399 5.93313 57.8701 5.0625 56.8013 5.0625H42.375C41.8573 5.0625 41.4375 5.48225 41.4375 6C41.4375 6.51775 41.8573 6.9375 42.375 6.9375H56.8013C56.834 6.9375 56.8649 6.96962 56.8649 7.0035V18.1283L54.0914 14.5107C53.8326 14.1731 53.4503 13.9795 53.0423 13.9795C52.6344 13.9795 52.252 14.1731 51.9931 14.5107L47.4318 20.4604L40.3423 11.2133C40.0834 10.8753 39.701 10.6814 39.2929 10.6814C38.8847 10.6814 38.5023 10.8753 38.2438 11.2128L33.6875 17.1561V7.00362C33.6875 6.96975 33.7185 6.93762 33.7511 6.93762H38C38.5177 6.93762 38.9375 6.51787 38.9375 6.00012C38.9375 5.48237 38.5177 5.06262 38 5.06262H33.7511C32.6821 5.06262 31.8125 5.93337 31.8125 7.00362V13.5625H12.25C11.7322 13.5625 11.3125 13.9823 11.3125 14.5C11.3125 15.0177 11.7322 15.4375 12.25 15.4375ZM53.0424 16.224L56.8649 21.2099V22.7766C56.8649 22.8106 56.834 22.8429 56.8013 22.8429H49.2586L48.6134 22.0011L53.0424 16.224ZM33.6875 20.2377L39.293 12.9261L46.8959 22.8429H33.7511C33.7184 22.8429 33.6875 22.8107 33.6875 22.7766V20.2377Z" fill="#DA3673"/>
<path id="Vector_2" d="M21.9206 21.7617C21.6921 21.6264 21.4431 21.555 21.2005 21.555C20.4978 21.555 19.9678 22.1225 19.9678 22.8751V36.799C19.9678 37.5516 20.4978 38.1191 21.2005 38.1191C21.4431 38.1191 21.6921 38.0476 21.9208 37.9124L33.6595 30.9625C34.0864 30.7099 34.3414 30.2891 34.3414 29.8374C34.3414 29.3856 34.0865 28.965 33.6597 28.7122L21.9206 21.7617ZM21.8428 35.7792V23.8945L31.8795 29.837L21.8428 35.7792Z" fill="#DA3673"/>
<path id="Vector_3" d="M4.27759 48.6875C4.79535 48.6875 5.21509 48.2678 5.21509 47.75C5.21509 47.2322 4.79535 46.8125 4.27759 46.8125C3.75982 46.8125 3.34009 47.2322 3.34009 47.75C3.34009 48.2678 3.75982 48.6875 4.27759 48.6875Z" fill="#DA3673"/>
<path id="Vector_4" d="M8.15259 48.6875C8.67035 48.6875 9.09009 48.2678 9.09009 47.75C9.09009 47.2322 8.67035 46.8125 8.15259 46.8125C7.63482 46.8125 7.21509 47.2322 7.21509 47.75C7.21509 48.2678 7.63482 48.6875 8.15259 48.6875Z" fill="#DA3673"/>
<path id="Vector_5" d="M12.0276 48.6875C12.5454 48.6875 12.9651 48.2678 12.9651 47.75C12.9651 47.2322 12.5454 46.8125 12.0276 46.8125C11.5098 46.8125 11.0901 47.2322 11.0901 47.75C11.0901 48.2678 11.5098 48.6875 12.0276 48.6875Z" fill="#DA3673"/>
<path id="Vector_6" d="M54.625 35.9239V33.5C54.625 32.9823 54.2052 32.5625 53.6875 32.5625C53.1698 32.5625 52.75 32.9823 52.75 33.5V35.7125C52.6285 35.7088 52.5068 35.7061 52.3844 35.7061C47.6744 35.7061 43.6104 38.524 41.7892 42.5625H1.875V15.75C1.875 15.5806 2.01813 15.4375 2.1875 15.4375H7.75C8.26775 15.4375 8.6875 15.0178 8.6875 14.5C8.6875 13.9822 8.26775 13.5625 7.75 13.5625H2.1875C0.981375 13.5625 0 14.5439 0 15.75V50.9598C0 52.1659 0.981375 53.1473 2.1875 53.1473H42.3385C44.3524 56.6068 48.1011 58.9375 52.3844 58.9375C58.7893 58.9375 64 53.7268 64 47.3219C64 41.6833 59.9613 36.971 54.625 35.9239ZM2.1875 51.2723C2.01813 51.2723 1.875 51.1291 1.875 50.9598V44.4375H41.1314C40.9404 45.1824 40.8216 45.9559 40.7829 46.75H16.6526C16.1349 46.75 15.7151 47.1698 15.7151 47.6875C15.7151 48.2052 16.1349 48.625 16.6526 48.625H40.8424C40.9454 49.5438 41.1556 50.4305 41.461 51.2723H2.1875ZM52.3844 57.0625C47.0134 57.0625 42.6437 52.6929 42.6437 47.3219C42.6437 41.9509 47.0134 37.5812 52.3844 37.5812C57.7554 37.5812 62.125 41.9508 62.125 47.3219C62.125 52.693 57.7554 57.0625 52.3844 57.0625Z" fill="#DA3673"/>
<path id="Vector_7" d="M53.4121 46.3159H51.3565C51.3109 46.3159 50.2387 46.304 50.2387 45.2664C50.2387 44.9899 50.2386 44.1484 51.3565 44.1484H54.8296C55.3474 44.1484 55.7671 43.7286 55.7671 43.2109C55.7671 42.6931 55.3474 42.2734 54.8296 42.2734H53.3218V41.635C53.3218 41.1173 52.902 40.6975 52.3843 40.6975C51.8665 40.6975 51.4468 41.1173 51.4468 41.635V42.2734H51.3564C49.5663 42.2734 48.3635 43.4763 48.3635 45.2664C48.3635 47.1659 49.9055 48.1909 51.3564 48.1909H53.412C53.6743 48.1909 54.5299 48.2665 54.5299 49.2404C54.5299 49.9115 54.3398 50.3584 53.412 50.3584H49.8324C49.3147 50.3584 48.8949 50.7781 48.8949 51.2959C48.8949 51.8136 49.3147 52.2334 49.8324 52.2334H51.4467V53.0089C51.4467 53.5266 51.8664 53.9464 52.3841 53.9464C52.9019 53.9464 53.3216 53.5266 53.3216 53.0089V52.2334H53.412C55.258 52.2334 56.4049 51.0865 56.4049 49.2404C56.405 47.3204 54.8994 46.3159 53.4121 46.3159Z" fill="#DA3673"/>
<path id="Vector_8" d="M45.5503 48.2594C46.0681 48.2594 46.4878 47.8397 46.4878 47.3219C46.4878 46.8041 46.0681 46.3844 45.5503 46.3844C45.0325 46.3844 44.6128 46.8041 44.6128 47.3219C44.6128 47.8397 45.0325 48.2594 45.5503 48.2594Z" fill="#DA3673"/>
<path id="Vector_9" d="M59.3003 48.2594C59.8181 48.2594 60.2378 47.8397 60.2378 47.3219C60.2378 46.8041 59.8181 46.3844 59.3003 46.3844C58.7825 46.3844 58.3628 46.8041 58.3628 47.3219C58.3628 47.8397 58.7825 48.2594 59.3003 48.2594Z" fill="#DA3673"/>
<path id="Vector_10" d="M51.0696 11.4352C51.0696 9.5071 49.5037 7.93848 47.5791 7.93848C45.6545 7.93848 44.0886 9.5071 44.0886 11.4352C44.0886 13.3633 45.6544 14.9321 47.5791 14.9321C49.5037 14.9321 51.0696 13.3633 51.0696 11.4352ZM45.9636 11.4352C45.9636 10.541 46.6882 9.81348 47.5791 9.81348C48.47 9.81348 49.1946 10.541 49.1946 11.4352C49.1946 12.3295 48.4699 13.0571 47.5791 13.0571C46.6882 13.0571 45.9636 12.3295 45.9636 11.4352Z" fill="#DA3673"/>
</g>
<defs>
<clipPath id="clip0_1560_212">
<rect width="64" height="64" fill="white"/>
</clipPath>
</defs>
</svg>
